<svg xmlns="http://www.w3.org/2000/svg" version="1.1" xmlns:xlink="http://www.w3.org/1999/xlink" xmlns:svgjs="http://svgjs.dev/svgjs" width="1000" height="1000" viewBox="0 0 1000 1000"><rect width="1000" height="1000" fill="#000000"></rect><g transform="matrix(0.7,0,0,0.7,149.22422144044594,9.347611978797602)"><svg viewBox="0 0 176 247" data-background-color="#0718c4" preserveAspectRatio="xMidYMid meet" height="1403" width="1000" xmlns="http://www.w3.org/2000/svg" xmlns:xlink="http://www.w3.org/1999/xlink"><g id="tight-bounds" transform="matrix(1,0,0,1,0.19505289497359968,-0.10000016165665215)"><svg viewBox="0 0 175.6098942100528 247.2" height="247.2" width="175.6098942100528"><g><svg viewBox="0 0 198.2098815675224 279.0132238499274" height="247.2" width="175.6098942100528"><g><svg viewBox="0 0 198.2098815675224 279.0132238499274" height="279.0132238499274" width="198.2098815675224"><g><svg viewBox="0 0 198.2098815675224 279.0132238499274" height="279.0132238499274" width="198.2098815675224"><g><svg viewBox="0 0 198.2098815675224 245.672304" height="245.672304" width="198.2098815675224"><rect width="198.2098815675224" height="245.672304" x="0" y="0" opacity="1" fill="#8dbdff" data-fill-palette-color="tertiary"></rect><g transform="matrix(1,0,0,1,23.461705032,23.461705032)"><svg width="151.2864715035224" viewBox="1.5 -36.849998474121094 28.049999237060547 36.849998474121094" height="198.748893936" data-palette-color="#0718c4"><path d="M18.05 0L13 0 13-11.9 1.5-36.85 6.75-36.85 15.6-17 24.5-36.85 29.55-36.85 18.05-11.9 18.05 0Z" opacity="1" transform="matrix(1,0,0,1,0,0)" fill="#0718c4" class="undefined-text-0" data-fill-palette-color="quaternary" id="text-0"></path></svg></g></svg></g><g transform="matrix(1,0,0,1,0,257.403156516)"><svg viewBox="0 0 198.2098815675224 21.610067333927407" height="21.610067333927407" width="198.2098815675224"><g transform="matrix(1,0,0,1,0,0)"><svg width="198.2098815675224" viewBox="5.25 -36.380001068115234 414.3500061035156 45.18000030517578" height="21.610067333927407" data-palette-color="#77d4fc"><path d="M5.25-35.38L26.45-35.38 26.45-33.25 7.83-33.25 7.83-18.38 23.95-18.38 23.95-16.25 7.83-16.25 7.83 0 5.25 0 5.25-35.38ZM30.53-24.88L32.93-24.88 32.93-8.97Q32.93-5.48 34.53-3.49 36.13-1.5 39.4-1.5L39.4-1.5Q41.83-1.5 43.93-2.74 46.03-3.98 47.7-6.18L47.7-6.18 47.7-24.88 50.1-24.88 50.1 0 48.78 0Q48.08 0 48.05-0.65L48.05-0.65 47.83-4.35Q46.1-2.2 43.84-0.9 41.58 0.4 38.8 0.4L38.8 0.4Q36.73 0.4 35.18-0.25 33.63-0.9 32.6-2.13 31.58-3.35 31.05-5.08 30.53-6.8 30.53-8.97L30.53-8.97 30.53-24.88ZM58.9-36.38L61.28-36.38 61.28 0 58.9 0 58.9-36.38ZM70.78-36.38L73.15-36.38 73.15 0 70.78 0 70.78-36.38ZM105.83-22.63L105.3-21.8Q105.13-21.45 104.75-21.45L104.75-21.45Q104.48-21.45 104.04-21.76 103.6-22.08 102.89-22.46 102.18-22.85 101.14-23.16 100.1-23.48 98.6-23.48L98.6-23.48Q97.25-23.48 96.14-23.09 95.03-22.7 94.24-22.05 93.45-21.4 93.01-20.54 92.58-19.68 92.58-18.73L92.58-18.73Q92.58-17.55 93.18-16.78 93.78-16 94.75-15.45 95.73-14.9 96.96-14.5 98.2-14.1 99.5-13.7 100.8-13.3 102.04-12.81 103.28-12.33 104.25-11.6 105.23-10.88 105.83-9.83 106.43-8.78 106.43-7.28L106.43-7.28Q106.43-5.65 105.84-4.25 105.25-2.85 104.14-1.83 103.03-0.8 101.4-0.2 99.78 0.4 97.7 0.4L97.7 0.4Q95.08 0.4 93.18-0.44 91.28-1.28 89.78-2.63L89.78-2.63 90.35-3.48Q90.48-3.68 90.63-3.78 90.78-3.88 91.05-3.88L91.05-3.88Q91.38-3.88 91.85-3.48 92.33-3.08 93.09-2.61 93.85-2.15 94.99-1.75 96.13-1.35 97.8-1.35L97.8-1.35Q99.38-1.35 100.58-1.79 101.78-2.23 102.58-2.98 103.38-3.73 103.79-4.74 104.2-5.75 104.2-6.88L104.2-6.88Q104.2-8.13 103.6-8.95 103-9.78 102.03-10.35 101.05-10.93 99.81-11.33 98.58-11.73 97.26-12.13 95.95-12.53 94.71-13 93.48-13.48 92.5-14.2 91.53-14.93 90.93-15.96 90.33-17 90.33-18.55L90.33-18.55Q90.33-19.88 90.9-21.1 91.48-22.33 92.54-23.25 93.6-24.18 95.13-24.73 96.65-25.28 98.55-25.28L98.55-25.28Q100.83-25.28 102.59-24.63 104.35-23.98 105.83-22.63L105.83-22.63ZM119.9 0.4L119.9 0.4Q117.38 0.4 115.96-1 114.55-2.4 114.55-5.33L114.55-5.33 114.55-22.33 110.98-22.33Q110.7-22.33 110.53-22.48 110.35-22.63 110.35-22.9L110.35-22.9 110.35-23.83 114.6-24.13 115.2-33.02Q115.23-33.25 115.39-33.43 115.55-33.6 115.83-33.6L115.83-33.6 116.95-33.6 116.95-24.1 124.78-24.1 124.78-22.33 116.95-22.33 116.95-5.45Q116.95-4.42 117.21-3.69 117.48-2.95 117.94-2.48 118.4-2 119.03-1.78 119.65-1.55 120.38-1.55L120.38-1.55Q121.28-1.55 121.93-1.81 122.58-2.08 123.05-2.39 123.53-2.7 123.83-2.96 124.13-3.23 124.3-3.23L124.3-3.23Q124.5-3.23 124.7-2.98L124.7-2.98 125.35-1.93Q124.4-0.88 122.94-0.24 121.48 0.4 119.9 0.4ZM147.75 0L146.8 0Q146.05 0 145.88-0.7L145.88-0.7 145.53-3.88Q144.5-2.88 143.49-2.08 142.48-1.28 141.38-0.73 140.28-0.18 139 0.11 137.73 0.4 136.2 0.4L136.2 0.4Q134.93 0.4 133.73 0.03 132.53-0.35 131.6-1.13 130.68-1.9 130.11-3.11 129.55-4.33 129.55-6.03L129.55-6.03Q129.55-7.6 130.45-8.95 131.35-10.3 133.26-11.3 135.18-12.3 138.19-12.9 141.2-13.5 145.43-13.6L145.43-13.6 145.43-16.2Q145.43-19.65 143.94-21.51 142.45-23.38 139.53-23.38L139.53-23.38Q137.73-23.38 136.46-22.88 135.2-22.38 134.33-21.78 133.45-21.18 132.9-20.68 132.35-20.18 131.98-20.18L131.98-20.18Q131.48-20.18 131.23-20.63L131.23-20.63 130.8-21.35Q132.75-23.3 134.9-24.3 137.05-25.3 139.78-25.3L139.78-25.3Q141.78-25.3 143.28-24.66 144.78-24.03 145.76-22.84 146.75-21.65 147.25-19.96 147.75-18.28 147.75-16.2L147.75-16.2 147.75 0ZM136.8-1.33L136.8-1.33Q138.25-1.33 139.46-1.64 140.68-1.95 141.71-2.51 142.75-3.08 143.65-3.85 144.55-4.63 145.43-5.53L145.43-5.53 145.43-12Q141.88-11.9 139.31-11.46 136.75-11.03 135.09-10.28 133.43-9.53 132.64-8.49 131.85-7.45 131.85-6.13L131.85-6.13Q131.85-4.88 132.26-3.96 132.68-3.05 133.35-2.46 134.03-1.88 134.93-1.6 135.83-1.33 136.8-1.33ZM172.25-22.4L171.63-21.55Q171.5-21.43 171.39-21.34 171.28-21.25 171.08-21.25L171.08-21.25Q170.83-21.25 170.39-21.59 169.95-21.93 169.23-22.33 168.5-22.73 167.41-23.06 166.33-23.4 164.78-23.4L164.78-23.4Q162.63-23.4 160.96-22.64 159.3-21.88 158.16-20.45 157.03-19.03 156.43-17 155.83-14.98 155.83-12.45L155.83-12.45Q155.83-9.83 156.44-7.8 157.05-5.78 158.18-4.39 159.3-3 160.9-2.27 162.5-1.55 164.45-1.55L164.45-1.55Q166.25-1.55 167.46-1.98 168.68-2.4 169.46-2.9 170.25-3.4 170.71-3.83 171.18-4.25 171.45-4.25L171.45-4.25Q171.78-4.25 171.95-4L171.95-4 172.6-3.2Q172.03-2.45 171.15-1.8 170.28-1.15 169.18-0.68 168.08-0.2 166.79 0.06 165.5 0.33 164.1 0.33L164.1 0.33Q161.73 0.33 159.76-0.54 157.8-1.4 156.39-3.04 154.98-4.67 154.19-7.05 153.4-9.43 153.4-12.45L153.4-12.45Q153.4-15.3 154.15-17.65 154.9-20 156.34-21.7 157.78-23.4 159.86-24.34 161.95-25.28 164.65-25.28L164.65-25.28Q167.08-25.28 168.96-24.5 170.85-23.73 172.25-22.4L172.25-22.4ZM178.25-36.38L180.65-36.38 180.65-14.2 181.8-14.2Q182.15-14.2 182.46-14.3 182.78-14.4 183.15-14.78L183.15-14.78 193.13-24.25Q193.4-24.53 193.69-24.7 193.98-24.88 194.43-24.88L194.43-24.88 196.53-24.88 185.55-14.45Q185.3-14.2 185.08-13.99 184.85-13.78 184.58-13.63L184.58-13.63Q184.98-13.43 185.25-13.15 185.53-12.88 185.83-12.55L185.83-12.55 197.35 0 195.28 0Q194.93 0 194.65-0.14 194.38-0.28 194.1-0.58L194.1-0.58 183.65-11.78Q183.23-12.23 182.88-12.39 182.53-12.55 181.78-12.55L181.78-12.55 180.65-12.55 180.65 0 178.25 0 178.25-36.38ZM231.2 0L229.88 0Q229.25 0 229.15-0.65L229.15-0.65 228.9-4.58Q227.25-2.33 225.04-1 222.83 0.33 220.08 0.33L220.08 0.33Q215.5 0.33 212.94-2.85 210.38-6.03 210.38-12.38L210.38-12.38Q210.38-15.1 211.09-17.46 211.8-19.83 213.19-21.56 214.58-23.3 216.59-24.3 218.6-25.3 221.23-25.3L221.23-25.3Q223.75-25.3 225.6-24.36 227.45-23.43 228.8-21.63L228.8-21.63 228.8-36.38 231.2-36.38 231.2 0ZM220.75-1.6L220.75-1.6Q223.23-1.6 225.23-2.88 227.23-4.15 228.8-6.43L228.8-6.43 228.8-19.55Q227.35-21.68 225.61-22.55 223.88-23.43 221.68-23.43L221.68-23.43Q219.48-23.43 217.83-22.63 216.18-21.83 215.06-20.36 213.95-18.9 213.39-16.86 212.83-14.83 212.83-12.38L212.83-12.38Q212.83-6.83 214.88-4.21 216.93-1.6 220.75-1.6ZM248.93-25.28L248.93-25.28Q251.03-25.28 252.81-24.55 254.6-23.83 255.91-22.44 257.23-21.05 257.96-19.03 258.7-17 258.7-14.38L258.7-14.38Q258.7-13.83 258.54-13.63 258.38-13.43 258.03-13.43L258.03-13.43 240.05-13.43 240.05-12.95Q240.05-10.15 240.7-8.03 241.35-5.9 242.55-4.46 243.75-3.03 245.45-2.3 247.15-1.58 249.25-1.58L249.25-1.58Q251.13-1.58 252.5-1.99 253.88-2.4 254.81-2.91 255.75-3.43 256.3-3.84 256.85-4.25 257.1-4.25L257.1-4.25Q257.43-4.25 257.6-4L257.6-4 258.25-3.2Q257.65-2.45 256.66-1.8 255.68-1.15 254.46-0.69 253.25-0.23 251.86 0.05 250.48 0.33 249.08 0.33L249.08 0.33Q246.53 0.33 244.43-0.56 242.33-1.45 240.83-3.15 239.33-4.85 238.51-7.31 237.7-9.78 237.7-12.95L237.7-12.95Q237.7-15.63 238.46-17.89 239.23-20.15 240.66-21.79 242.1-23.43 244.19-24.35 246.28-25.28 248.93-25.28ZM248.95-23.5L248.95-23.5Q247.03-23.5 245.5-22.9 243.98-22.3 242.86-21.18 241.75-20.05 241.06-18.48 240.38-16.9 240.15-14.95L240.15-14.95 256.55-14.95Q256.55-16.95 256-18.54 255.45-20.13 254.45-21.23 253.45-22.33 252.05-22.91 250.65-23.5 248.95-23.5ZM284.33-24.88L273.83 0 271.73 0 261.23-24.88 263.1-24.88Q263.45-24.88 263.66-24.69 263.88-24.5 263.98-24.28L263.98-24.28 272.18-4.65Q272.43-4.08 272.55-3.55 272.68-3.03 272.8-2.5L272.8-2.5Q272.93-3.03 273.06-3.56 273.2-4.1 273.43-4.65L273.43-4.65 281.68-24.28Q281.8-24.55 282.01-24.71 282.23-24.88 282.53-24.88L282.53-24.88 284.33-24.88ZM297.93-25.28L297.93-25.28Q300.03-25.28 301.81-24.55 303.6-23.83 304.91-22.44 306.23-21.05 306.96-19.03 307.7-17 307.7-14.38L307.7-14.38Q307.7-13.83 307.54-13.63 307.38-13.43 307.03-13.43L307.03-13.43 289.05-13.43 289.05-12.95Q289.05-10.15 289.7-8.03 290.35-5.9 291.55-4.46 292.75-3.03 294.45-2.3 296.15-1.58 298.25-1.58L298.25-1.58Q300.13-1.58 301.5-1.99 302.88-2.4 303.81-2.91 304.75-3.43 305.3-3.84 305.85-4.25 306.1-4.25L306.1-4.25Q306.43-4.25 306.6-4L306.6-4 307.25-3.2Q306.65-2.45 305.66-1.8 304.68-1.15 303.46-0.69 302.25-0.23 300.86 0.05 299.48 0.33 298.08 0.33L298.08 0.33Q295.53 0.33 293.43-0.56 291.33-1.45 289.83-3.15 288.33-4.85 287.51-7.31 286.7-9.78 286.7-12.95L286.7-12.95Q286.7-15.63 287.46-17.89 288.23-20.15 289.66-21.79 291.1-23.43 293.19-24.35 295.28-25.28 297.93-25.28ZM297.95-23.5L297.95-23.5Q296.03-23.5 294.5-22.9 292.98-22.3 291.86-21.18 290.75-20.05 290.06-18.48 289.38-16.9 289.15-14.95L289.15-14.95 305.55-14.95Q305.55-16.95 305-18.54 304.45-20.13 303.45-21.23 302.45-22.33 301.05-22.91 299.65-23.5 297.95-23.5ZM314.8-36.38L317.18-36.38 317.18 0 314.8 0 314.8-36.38ZM335.45-25.28L335.45-25.28Q338.13-25.28 340.24-24.36 342.35-23.45 343.8-21.78 345.25-20.1 346.01-17.74 346.78-15.38 346.78-12.45L346.78-12.45Q346.78-9.53 346.01-7.18 345.25-4.83 343.8-3.15 342.35-1.48 340.24-0.58 338.13 0.33 335.45 0.33L335.45 0.33Q332.78 0.33 330.66-0.58 328.55-1.48 327.09-3.15 325.63-4.83 324.86-7.18 324.1-9.53 324.1-12.45L324.1-12.45Q324.1-15.38 324.86-17.74 325.63-20.1 327.09-21.78 328.55-23.45 330.66-24.36 332.78-25.28 335.45-25.28ZM335.45-1.55L335.45-1.55Q337.68-1.55 339.34-2.31 341-3.08 342.11-4.5 343.23-5.93 343.78-7.94 344.33-9.95 344.33-12.45L344.33-12.45Q344.33-14.93 343.78-16.95 343.23-18.98 342.11-20.41 341-21.85 339.34-22.63 337.68-23.4 335.45-23.4L335.45-23.4Q333.23-23.4 331.56-22.63 329.9-21.85 328.79-20.41 327.68-18.98 327.11-16.95 326.55-14.93 326.55-12.45L326.55-12.45Q326.55-9.95 327.11-7.94 327.68-5.93 328.79-4.5 329.9-3.08 331.56-2.31 333.23-1.55 335.45-1.55ZM355.4 8.8L353.03 8.8 353.03-24.88 354.33-24.88Q354.65-24.88 354.85-24.74 355.05-24.6 355.08-24.25L355.08-24.25 355.3-20.4Q356.95-22.65 359.16-23.98 361.38-25.3 364.13-25.3L364.13-25.3Q368.73-25.3 371.28-22.13 373.83-18.95 373.83-12.6L373.83-12.6Q373.83-9.88 373.11-7.51 372.4-5.15 371.03-3.41 369.65-1.68 367.64-0.68 365.63 0.33 363 0.33L363 0.33Q360.45 0.33 358.6-0.6 356.75-1.53 355.4-3.35L355.4-3.35 355.4 8.8ZM363.45-23.38L363.45-23.38Q360.98-23.38 358.96-22.09 356.95-20.8 355.4-18.5L355.4-18.5 355.4-5.45Q356.83-3.3 358.56-2.43 360.3-1.55 362.53-1.55L362.53-1.55Q364.73-1.55 366.38-2.35 368.03-3.15 369.14-4.61 370.25-6.08 370.81-8.11 371.38-10.15 371.38-12.6L371.38-12.6Q371.38-18.15 369.34-20.76 367.3-23.38 363.45-23.38ZM389.15-25.28L389.15-25.28Q391.25-25.28 393.04-24.55 394.83-23.83 396.14-22.44 397.45-21.05 398.19-19.03 398.93-17 398.93-14.38L398.93-14.38Q398.93-13.83 398.76-13.63 398.6-13.43 398.25-13.43L398.25-13.43 380.28-13.43 380.28-12.95Q380.28-10.15 380.93-8.03 381.58-5.9 382.78-4.46 383.98-3.03 385.68-2.3 387.38-1.58 389.48-1.58L389.48-1.58Q391.35-1.58 392.73-1.99 394.1-2.4 395.04-2.91 395.98-3.43 396.53-3.84 397.08-4.25 397.33-4.25L397.33-4.25Q397.65-4.25 397.83-4L397.83-4 398.48-3.2Q397.88-2.45 396.89-1.8 395.9-1.15 394.69-0.69 393.48-0.23 392.09 0.05 390.7 0.33 389.3 0.33L389.3 0.33Q386.75 0.33 384.65-0.56 382.55-1.45 381.05-3.15 379.55-4.85 378.74-7.31 377.93-9.78 377.93-12.95L377.93-12.95Q377.93-15.63 378.69-17.89 379.45-20.15 380.89-21.79 382.33-23.43 384.41-24.35 386.5-25.28 389.15-25.28ZM389.18-23.5L389.18-23.5Q387.25-23.5 385.73-22.9 384.2-22.3 383.09-21.18 381.98-20.05 381.29-18.48 380.6-16.9 380.38-14.95L380.38-14.95 396.78-14.95Q396.78-16.95 396.23-18.54 395.68-20.13 394.68-21.23 393.68-22.33 392.28-22.91 390.88-23.5 389.18-23.5ZM407.7 0L405.33 0 405.33-24.88 406.58-24.88Q407-24.88 407.19-24.7 407.38-24.53 407.4-24.1L407.4-24.1 407.6-18.85Q408.8-21.88 410.8-23.59 412.8-25.3 415.73-25.3L415.73-25.3Q416.85-25.3 417.8-25.06 418.75-24.83 419.6-24.38L419.6-24.38 419.28-22.73Q419.2-22.33 418.78-22.33L418.78-22.33Q418.63-22.33 418.35-22.43 418.08-22.53 417.66-22.65 417.25-22.78 416.65-22.88 416.05-22.98 415.28-22.98L415.28-22.98Q412.45-22.98 410.64-21.23 408.83-19.48 407.7-16.18L407.7-16.18 407.7 0Z" opacity="1" transform="matrix(1,0,0,1,0,0)" fill="#ffffff" class="undefined-text-1" data-fill-palette-color="secondary" id="text-1"></path></svg></g></svg></g></svg></g></svg></g><g></g></svg></g><defs></defs></svg><rect width="175.6098942100528" height="247.2" fill="none" stroke="none" visibility="hidden"></rect></g></svg></g></svg>